<svg width="2647" height="418" viewBox="0 0 2647 418" fill="none" xmlns="http://www.w3.org/2000/svg">
<path d="M96.2376 326.134H263.267V418H0.792085V0.425661H260.285V92.292H96.2376V161.49H245.371V252.163H96.2376V326.134ZM734.693 0.425661V418H639.247V175.21L531.275 352.381H520.537L412.564 175.21V418H317.119V0.425661H412.564L525.906 185.948L639.247 0.425661H734.693ZM1071.92 418L1051.04 352.381H895.944L875.065 418H770.671L912.647 0.425661H1034.34L1176.32 418H1071.92ZM924.577 262.901H1022.41L973.493 109.592L924.577 262.901ZM1483.2 418L1462.33 352.381H1307.23L1286.35 418H1181.95L1323.93 0.425661H1445.62L1587.6 418H1483.2ZM1335.86 262.901H1433.69L1384.78 109.592L1335.86 262.901ZM1842.73 418L1763.99 280.797H1718.65V418H1623.2V0.425661H1790.23C1869.57 0.425661 1933.4 64.2549 1933.4 143.594C1933.4 194.896 1902.38 241.426 1856.45 264.691L1945.33 418H1842.73ZM1718.65 89.9059V197.282H1790.23C1816.48 197.282 1837.96 174.017 1837.96 143.594C1837.96 113.171 1816.48 89.9059 1790.23 89.9059H1718.65ZM2255.67 418L2234.79 352.381H2079.69L2058.81 418H1954.42L2096.4 0.425661H2218.09L2360.06 418H2255.67ZM2108.33 262.901H2206.16L2157.24 109.592L2108.33 262.901ZM2646.33 0.425661V92.292H2538.95V418H2443.51V92.292H2336.13V0.425661H2646.33Z" fill="black"/>
</svg>
