<svg width="127" height="127" viewBox="0 0 127 127" fill="none" xmlns="http://www.w3.org/2000/svg">
<circle cx="63.0181" cy="63.0182" r="40.7249" stroke="#F3EEEB" stroke-width="1.93009"/>
<circle cx="63.5" cy="63.5" r="62.535" stroke="#F3EEEB" stroke-width="1.93009"/>
<path d="M11.8519 47.9374C11.3916 47.7129 10.9799 47.4155 10.6169 47.0455C10.2502 46.665 9.96054 46.2343 9.74795 45.7536C9.53173 45.2623 9.42624 44.7418 9.43147 44.1919C9.42962 43.6387 9.56691 43.0788 9.84333 42.5122C10.1716 41.8395 10.609 41.3383 11.1555 41.0088C11.695 40.6758 12.2626 40.51 12.8581 40.5112L12.9788 41.5038C12.5875 41.4971 12.2429 41.5656 11.9447 41.7095C11.6429 41.8428 11.3874 42.025 11.1782 42.2561C10.9725 42.4801 10.8074 42.7196 10.683 42.9746C10.4792 43.3924 10.3827 43.8056 10.3938 44.2143C10.4082 44.6159 10.5036 44.9956 10.6797 45.3533C10.8559 45.7111 11.0933 46.033 11.3921 46.3191C11.6873 46.5946 12.012 46.8188 12.366 46.9915C12.7555 47.1816 13.162 47.301 13.5853 47.3497C14.0122 47.3914 14.4207 47.3627 14.8109 47.2638C15.2011 47.1649 15.5554 46.9958 15.8738 46.7566C16.1921 46.5174 16.4429 46.2101 16.626 45.8348C16.7538 45.5727 16.8391 45.2812 16.8818 44.9601C16.9245 44.639 16.909 44.3114 16.8353 43.9773C16.7545 43.6398 16.5928 43.3242 16.3503 43.0305L17.1746 42.4463C17.4739 42.7852 17.6751 43.1815 17.7782 43.6351C17.8812 44.0887 17.9016 44.5502 17.8392 45.0195C17.7802 45.4817 17.6557 45.9076 17.4657 46.2971C17.2135 46.814 16.8722 47.235 16.4419 47.5598C16.0045 47.8813 15.5239 48.1115 15.0002 48.2505C14.4728 48.3789 13.9358 48.4194 13.3891 48.3718C12.8388 48.3138 12.3264 48.169 11.8519 47.9374Z" fill="#F5D070"/>
<path d="M20.0415 41.4636L13.1848 36.6252L13.7981 35.756L19.8823 40.0492L22.5808 36.2249L23.3534 36.7701L20.0415 41.4636Z" fill="#F5D070"/>
<path d="M24.6697 35.3603L18.3979 29.7845L19.1047 28.9895L25.3765 34.5653L24.6697 35.3603Z" fill="#F5D070"/>
<path d="M24.0156 29.6591C23.678 29.2739 23.4133 28.8405 23.2216 28.3589C23.0306 27.8661 22.9301 27.357 22.92 26.8314C22.9106 26.2948 23.0146 25.7739 23.2321 25.2689C23.4443 24.758 23.7875 24.2948 24.2615 23.8792C24.8244 23.3857 25.4216 23.0928 26.053 23.0002C26.6793 22.9018 27.2668 22.9684 27.8156 23.1999L27.543 24.1619C27.1848 24.0043 26.8404 23.9342 26.5098 23.9516C26.18 23.9578 25.8739 24.0271 25.5916 24.1593C25.3152 24.2863 25.0704 24.4433 24.8571 24.6303C24.5075 24.9368 24.2587 25.2806 24.1108 25.6617C23.9689 26.0377 23.9099 26.4247 23.934 26.8227C23.9581 27.2207 24.0526 27.6094 24.2175 27.9888C24.3832 28.3571 24.5958 28.6893 24.8556 28.9856C25.1412 29.3115 25.4699 29.5788 25.8414 29.7875C26.2189 29.9909 26.6067 30.1225 27.0049 30.1822C27.403 30.2419 27.7951 30.223 28.1812 30.1255C28.5673 30.028 28.9174 29.8417 29.2314 29.5664C29.4506 29.3742 29.642 29.1383 29.8056 28.8587C29.9692 28.579 30.0815 28.2709 30.1428 27.9344C30.1988 27.5918 30.1718 27.2383 30.0617 26.8737L31.0478 26.6537C31.1927 27.082 31.225 27.5253 31.1446 27.9835C31.0642 28.4416 30.9045 28.8751 30.6655 29.2837C30.4324 29.6872 30.1529 30.0318 29.827 30.3174C29.3944 30.6966 28.9169 30.9528 28.3945 31.086C27.8668 31.2132 27.3346 31.2397 26.7978 31.1653C26.2618 31.0798 25.7509 30.9094 25.2652 30.6542C24.7801 30.3878 24.3636 30.0561 24.0156 29.6591Z" fill="#F5D070"/>
<path d="M34.0525 26.8434L29.6683 19.7017L30.5748 19.1451L32.9988 23.0938L34.2554 16.8718L35.2325 16.272L34.2971 21.1872L39.784 23.3249L38.7666 23.9495L34.0569 22.0836L33.6172 24.1011L34.959 26.2869L34.0525 26.8434Z" fill="#F5D070"/>
<path d="M48.471 12.1155L45.7168 13.01L48.017 20.0922L47.0052 20.4208L44.7051 13.3386L41.9509 14.2331L41.6588 13.3338L48.179 11.2162L48.471 12.1155Z" fill="#F5D070"/>
<path d="M56.0092 18.3356C55.4243 18.4199 54.8771 18.3793 54.3676 18.2139C53.8582 18.0485 53.3993 17.7922 52.991 17.445C52.5894 17.0889 52.2591 16.6747 52 16.2025C51.7397 15.7226 51.5714 15.2174 51.495 14.6871C51.4152 14.1333 51.4368 13.5928 51.5599 13.0656C51.6896 12.5294 51.9019 12.0411 52.1966 11.6005C52.4981 11.1511 52.8704 10.779 53.3136 10.4843C53.7556 10.1817 54.2574 9.99002 54.8189 9.90911C55.4039 9.82483 55.9516 9.8693 56.4622 10.0425C56.9728 10.2157 57.4289 10.4804 57.8305 10.8365C58.2321 11.1926 58.5625 11.6068 58.8216 12.079C59.0807 12.5511 59.2479 13.0485 59.3232 13.571C59.4029 14.1248 59.3819 14.6692 59.2599 15.2042C59.1369 15.7315 58.9246 16.2198 58.6232 16.6693C58.3284 17.1098 57.9594 17.4774 57.5163 17.7721C57.0731 18.0669 56.5708 18.2547 56.0092 18.3356ZM52.5596 14.5337C52.6203 14.9548 52.7456 15.3547 52.9355 15.7334C53.132 16.1031 53.377 16.4221 53.6704 16.6903C53.9638 16.9585 54.2989 17.157 54.6757 17.2858C55.0525 17.4146 55.4554 17.4481 55.8844 17.3863C56.3289 17.3223 56.7132 17.1714 57.0372 16.9336C57.3612 16.6959 57.6216 16.4036 57.8184 16.0568C58.023 15.7088 58.1597 15.3309 58.2283 14.923C58.3047 14.5139 58.3142 14.1105 58.2569 13.7127C58.1962 13.2916 58.0676 12.8961 57.871 12.5264C57.6822 12.1556 57.4372 11.8366 57.136 11.5695C56.8415 11.2935 56.5064 11.095 56.1307 10.974C55.7617 10.844 55.3666 10.8094 54.9455 10.8701C54.5009 10.9342 54.1166 11.0851 53.7926 11.3228C53.4675 11.5528 53.2027 11.8417 52.998 12.1896C52.8012 12.5364 52.6646 12.9144 52.5882 13.3234C52.5107 13.7247 52.5011 14.1281 52.5596 14.5337Z" fill="#F5D070"/>
<path d="M66.1029 17.8175L66.6403 9.44282L67.7019 9.51094L67.1645 17.8856L66.1029 17.8175Z" fill="#F5D070"/>
<path d="M72.2406 11.9468L70.9711 18.2501L69.9283 18.0401L71.5852 9.81333L72.4658 9.99069L76.1993 17.4342L77.4922 11.0151L78.535 11.2251L76.8804 19.4402L75.9303 19.2489L72.2406 11.9468Z" fill="#F5D070"/>
<path d="M87.9512 15.5892L85.2546 14.5336L82.5402 21.4676L81.5497 21.0799L84.264 14.1459L81.5675 13.0903L81.9122 12.2098L88.2958 14.7087L87.9512 15.5892Z" fill="#F5D070"/>
<path d="M92.3424 25.4748L91.8656 26.2913L86.9459 23.4186L91.1775 16.1717L96.0053 18.9908L95.5285 19.8073L91.6193 17.5246L90.2485 19.8722L93.6474 21.8569L93.2004 22.6224L89.8015 20.6377L88.3413 23.1384L92.3424 25.4748Z" fill="#F5D070"/>
<path d="M93.7267 27.6036L99.0625 21.1264L101.836 23.411C102.122 23.6465 102.333 23.9228 102.47 24.2398C102.612 24.5507 102.689 24.8792 102.7 25.2252C102.716 25.5651 102.67 25.8998 102.562 26.2294C102.458 26.5528 102.302 26.8422 102.091 27.0977C101.846 27.3957 101.555 27.6309 101.219 27.8033C100.889 27.9807 100.543 28.0785 100.181 28.0967C99.8249 28.1199 99.48 28.0553 99.1462 27.9028L98.6712 31.6768L97.7407 30.9103L98.1792 27.3665L96.4641 25.9536L94.5477 28.2799L93.7267 27.6036ZM97.0653 25.2238L99.0267 26.8396C99.2517 27.025 99.4965 27.1245 99.7609 27.1381C100.036 27.1507 100.305 27.0911 100.566 26.9595C100.834 26.8329 101.066 26.651 101.261 26.4138C101.461 26.1705 101.59 25.9034 101.645 25.6125C101.706 25.3156 101.699 25.0336 101.623 24.7667C101.546 24.4998 101.402 24.2786 101.189 24.1033L99.2823 22.5326L97.0653 25.2238Z" fill="#F5D070"/>
<path d="M108.169 29.6173L108.756 30.297L104.646 38.377L103.905 37.5183L105.116 35.1598L102.813 32.4945L100.312 33.3593L99.5698 32.5007L108.169 29.6173ZM105.587 34.4401L107.532 30.7608L103.578 32.1146L105.587 34.4401Z" fill="#F5D070"/>
<path d="M109.135 37.3719C109.574 37.1086 110.048 36.9257 110.556 36.8233C111.075 36.7236 111.594 36.7158 112.113 36.7998C112.643 36.8866 113.136 37.0822 113.594 37.3865C114.059 37.6867 114.453 38.1072 114.777 38.648C115.162 39.2901 115.344 39.93 115.322 40.5679C115.306 41.2016 115.136 41.7678 114.81 42.2662L113.912 41.8259C114.131 41.5017 114.262 41.1754 114.304 40.847C114.357 40.5214 114.344 40.2079 114.264 39.9065C114.188 39.6118 114.078 39.3428 113.932 39.0995C113.693 38.7007 113.399 38.3945 113.051 38.1808C112.706 37.9738 112.336 37.8466 111.94 37.7991C111.544 37.7516 111.145 37.775 110.742 37.8694C110.35 37.9665 109.985 38.1163 109.647 38.3188C109.275 38.5415 108.954 38.817 108.682 39.1453C108.414 39.4803 108.215 39.8383 108.085 40.2193C107.955 40.6003 107.904 40.9895 107.931 41.3868C107.957 41.7841 108.078 42.1619 108.293 42.5201C108.443 42.7702 108.641 43.0007 108.886 43.2116C109.132 43.4226 109.415 43.5883 109.735 43.7087C110.062 43.8251 110.415 43.8618 110.794 43.8188L110.833 44.8283C110.386 44.8942 109.944 44.8467 109.508 44.6856C109.071 44.5246 108.674 44.2899 108.314 43.9816C107.959 43.6801 107.67 43.3434 107.447 42.9717C107.152 42.4782 106.985 41.9626 106.947 41.4247C106.917 40.8828 106.986 40.3545 107.155 39.8397C107.335 39.3276 107.594 38.8555 107.932 38.4232C108.281 37.9937 108.682 37.6432 109.135 37.3719Z" fill="#F5D070"/>
<path d="M119.245 50.6577L118.183 47.964L111.256 50.6973L110.865 49.7078L117.792 46.9745L116.729 44.2809L117.609 43.9338L120.125 50.3106L119.245 50.6577Z" fill="#F5D070"/>
<path d="M18.0541 82.8793C18.5219 82.6708 19.0142 82.5463 19.531 82.5058C20.0582 82.4693 20.5743 82.524 21.0793 82.6699C21.5947 82.8198 22.0614 83.0733 22.4794 83.4306C22.9046 83.7846 23.2454 84.2495 23.502 84.8253C23.8067 85.509 23.9098 86.1662 23.8112 86.7967C23.7198 87.4241 23.4823 87.9655 23.0987 88.4212L22.2605 87.8759C22.5171 87.5805 22.686 87.2723 22.7673 86.9514C22.859 86.6344 22.8834 86.3216 22.8407 86.0128C22.8012 85.7112 22.7238 85.4309 22.6083 85.1718C22.4191 84.7471 22.1643 84.4077 21.844 84.1536C21.527 83.9067 21.1748 83.7359 20.7874 83.641C20.4001 83.5462 20.0009 83.5214 19.5897 83.5666C19.1889 83.6158 18.8086 83.7206 18.4487 83.881C18.0528 84.0574 17.7002 84.2921 17.3909 84.5853C17.0848 84.8856 16.8443 85.217 16.6694 85.5796C16.4945 85.9422 16.3965 86.3224 16.3753 86.72C16.3541 87.1177 16.4285 87.5072 16.5985 87.8887C16.7171 88.155 16.8858 88.4077 17.1045 88.6467C17.3231 88.8857 17.5841 89.0842 17.8875 89.2424C18.1981 89.3973 18.5438 89.4761 18.9246 89.479L18.8428 90.4859C18.3908 90.4976 17.9578 90.3972 17.544 90.1848C17.1302 89.9724 16.7635 89.6915 16.4439 89.3422C16.1275 89.0001 15.8811 88.6311 15.7047 88.2352C15.4706 87.7098 15.3673 87.1779 15.3947 86.6394C15.4294 86.0977 15.5617 85.5815 15.7917 85.0909C16.032 84.6042 16.346 84.1666 16.7336 83.7782C17.1317 83.3938 17.5718 83.0942 18.0541 82.8793Z" fill="#F5D070"/>
<path d="M18.4495 93.4732L25.4701 88.8759L26.0528 89.7658L19.8233 93.8452L22.3875 97.7609L21.5964 98.2789L18.4495 93.4732Z" fill="#F5D070"/>
<path d="M23.0385 99.9739L29.5001 94.6192L30.1789 95.4383L23.7173 100.793L23.0385 99.9739Z" fill="#F5D070"/>
<path d="M28.2435 99.6901C28.5943 99.3169 29.0002 99.0117 29.4611 98.7744C29.9331 98.5369 30.4302 98.3877 30.9523 98.327C31.4856 98.2659 32.014 98.3192 32.5377 98.487C33.0667 98.649 33.5608 98.9459 34.0201 99.3777C34.5656 99.8904 34.9148 100.457 35.0677 101.076C35.226 101.69 35.2164 102.281 35.0389 102.85L34.0551 102.671C34.1774 102.299 34.2139 101.95 34.1648 101.623C34.1268 101.295 34.0284 100.997 33.8696 100.729C33.7165 100.466 33.5366 100.237 33.33 100.043C32.9912 99.7244 32.625 99.51 32.2314 99.3995C31.8435 99.2945 31.4526 99.2731 31.0588 99.3355C30.6649 99.3978 30.2871 99.5293 29.9254 99.73C29.5749 99.9304 29.2646 100.174 28.9948 100.461C28.698 100.777 28.4636 101.13 28.2917 101.52C28.1255 101.915 28.032 102.314 28.0109 102.716C27.9899 103.118 28.0465 103.506 28.1808 103.881C28.315 104.256 28.5342 104.587 28.8385 104.873C29.051 105.072 29.3042 105.24 29.5983 105.376C29.8924 105.512 30.2099 105.594 30.5508 105.622C30.8971 105.645 31.2464 105.584 31.5987 105.44L31.9127 106.4C31.5003 106.585 31.0623 106.66 30.5985 106.624C30.1347 106.589 29.6879 106.471 29.2581 106.273C28.8341 106.08 28.4641 105.835 28.1484 105.538C27.7292 105.144 27.4282 104.693 27.2453 104.186C27.0678 103.673 26.9902 103.146 27.0125 102.605C27.0459 102.063 27.1662 101.538 27.3735 101.03C27.5919 100.521 27.8819 100.075 28.2435 99.6901Z" fill="#F5D070"/>
<path d="M32.702 109.333L37.3315 102.348L38.2182 102.935L35.6586 106.797L41.8307 105.315L42.7863 105.949L37.9347 107.172L38.3079 113.048L37.3128 112.389L37.0205 107.331L35.0056 107.783L33.5887 109.921L32.702 109.333Z" fill="#F5D070"/>
<path d="M52.2511 110.84L49.5296 109.85L46.985 116.848L45.9853 116.485L48.5299 109.487L45.8084 108.497L46.1316 107.608L52.5742 109.951L52.2511 110.84Z" fill="#F5D070"/>
<path d="M55.3301 119.116C54.7485 119.012 54.242 118.801 53.8108 118.483C53.3795 118.165 53.0249 117.777 52.747 117.319C52.4782 116.854 52.2954 116.357 52.1985 115.827C52.1029 115.29 52.1026 114.757 52.1974 114.23C52.2963 113.679 52.4874 113.173 52.7704 112.712C53.0627 112.244 53.4182 111.847 53.8369 111.522C54.2647 111.191 54.7354 110.955 55.2489 110.815C55.7638 110.668 56.3004 110.644 56.8588 110.745C57.4405 110.849 57.9462 111.064 58.3761 111.389C58.806 111.715 59.1553 112.11 59.4241 112.575C59.6928 113.039 59.8757 113.536 59.9726 114.066C60.0695 114.596 60.0713 115.121 59.9779 115.64C59.8789 116.191 59.6872 116.701 59.4027 117.17C59.1196 117.632 58.7641 118.028 58.3363 118.36C57.9176 118.685 57.4515 118.917 56.938 119.057C56.4245 119.197 55.8885 119.217 55.3301 119.116ZM53.256 114.42C53.1807 114.839 53.1734 115.258 53.2342 115.677C53.3041 116.09 53.436 116.47 53.6298 116.817C53.8236 117.164 54.079 117.458 54.3959 117.699C54.7128 117.94 55.0846 118.099 55.5111 118.176C55.9532 118.255 56.3655 118.234 56.7479 118.11C57.1304 117.987 57.4697 117.791 57.7658 117.524C58.0698 117.259 58.3186 116.943 58.5124 116.578C58.7139 116.214 58.8503 115.834 58.9213 115.438C58.9966 115.02 58.9993 114.604 58.9294 114.191C58.8672 113.779 58.7354 113.4 58.5338 113.051C58.3414 112.696 58.086 112.402 57.7677 112.169C57.4585 111.929 57.0945 111.772 56.6757 111.696C56.2337 111.617 55.8214 111.639 55.439 111.762C55.0579 111.878 54.7154 112.069 54.4115 112.334C54.1153 112.601 53.8665 112.917 53.6649 113.281C53.4648 113.637 53.3285 114.017 53.256 114.42Z" fill="#F5D070"/>
<path d="M65.9716 119.909L65.7253 111.521L66.7886 111.489L67.0349 119.878L65.9716 119.909Z" fill="#F5D070"/>
<path d="M70.1541 113.268L71.204 119.611L70.1545 119.785L68.7842 111.506L69.6705 111.359L75.8025 116.993L74.7333 110.533L75.7827 110.359L77.1511 118.627L76.1949 118.785L70.1541 113.268Z" fill="#F5D070"/>
<path d="M83.5937 108.696L80.8621 109.658L83.3341 116.682L82.3307 117.035L79.8587 110.011L77.1271 110.972L76.8132 110.08L83.2798 107.804L83.5937 108.696Z" fill="#F5D070"/>
<path d="M92.7525 111.185L93.2007 112.017L88.1842 114.718L84.2067 107.328L89.1296 104.678L89.5777 105.511L85.5916 107.657L86.88 110.05L90.3458 108.185L90.766 108.965L87.3002 110.831L88.6727 113.381L92.7525 111.185Z" fill="#F5D070"/>
<path d="M95.4629 110.538L90.3552 103.88L93.2062 101.693C93.5001 101.467 93.8169 101.324 94.1566 101.262C94.4916 101.193 94.8288 101.193 95.1684 101.26C95.5032 101.321 95.8189 101.441 96.1156 101.621C96.4075 101.794 96.6541 102.012 96.8555 102.275C97.0905 102.581 97.2542 102.918 97.3464 103.284C97.4449 103.645 97.4622 104.004 97.3983 104.361C97.3406 104.713 97.1999 105.035 96.9761 105.326L100.546 106.639L99.5893 107.373L96.2356 106.147L94.4725 107.499L96.307 109.891L95.4629 110.538ZM93.897 106.749L95.9133 105.202C96.1446 105.025 96.2968 104.809 96.3696 104.554C96.444 104.289 96.4465 104.014 96.3772 103.729C96.3142 103.44 96.1892 103.173 96.0021 102.93C95.8103 102.68 95.579 102.494 95.3082 102.374C95.0326 102.248 94.7561 102.192 94.4789 102.206C94.2017 102.22 93.9537 102.311 93.7348 102.479L91.7748 103.983L93.897 106.749Z" fill="#F5D070"/>
<path d="M97.9893 97.3169L98.5998 96.6579L107.085 99.8468L106.314 100.679L103.836 99.7367L101.442 102.32L102.579 104.711L101.808 105.543L97.9893 97.3169ZM103.068 99.3478L99.1963 97.8228L100.98 101.602L103.068 99.3478Z" fill="#F5D070"/>
<path d="M104.674 96.0186C104.244 95.7403 103.871 95.3956 103.555 94.9845C103.237 94.5626 103.001 94.1002 102.848 93.5974C102.693 93.0837 102.651 92.5542 102.722 92.009C102.787 91.4596 102.99 90.9203 103.333 90.3911C103.74 89.7628 104.234 89.3179 104.817 89.0566C105.392 88.7909 105.976 88.6946 106.567 88.7675L106.567 89.7675C106.18 89.7136 105.829 89.7402 105.516 89.8471C105.2 89.9432 104.925 90.0933 104.689 90.2975C104.458 90.4952 104.265 90.713 104.111 90.9511C103.858 91.3414 103.713 91.74 103.675 92.1471C103.641 92.5475 103.69 92.9359 103.821 93.3122C103.953 93.6886 104.15 94.0367 104.412 94.3567C104.672 94.6658 104.968 94.9274 105.298 95.1415C105.662 95.377 106.051 95.5445 106.466 95.6438C106.884 95.7366 107.293 95.7573 107.693 95.7061C108.092 95.6548 108.464 95.5296 108.809 95.3305C109.154 95.1313 109.44 94.8565 109.667 94.5059C109.825 94.2612 109.945 93.982 110.026 93.6684C110.107 93.3547 110.131 93.0276 110.098 92.6871C110.058 92.3423 109.936 92.0096 109.73 91.6888L110.619 91.2081C110.875 91.5806 111.027 91.9982 111.075 92.4609C111.123 92.9236 111.087 93.3842 110.969 93.8426C110.855 94.2944 110.68 94.7021 110.444 95.0659C110.132 95.5488 109.742 95.9256 109.276 96.1963C108.803 96.4627 108.298 96.6334 107.762 96.7083C107.223 96.7724 106.685 96.7479 106.148 96.6349C105.608 96.511 105.117 96.3056 104.674 96.0186Z" fill="#F5D070"/>
<path d="M108.934 81.3879L107.778 84.043L114.606 87.0151L114.181 87.9905L107.354 85.0184L106.198 87.6735L105.331 87.2961L108.067 81.0105L108.934 81.3879Z" fill="#F5D070"/>
</svg>
