<svg width="61" height="67" viewBox="0 0 61 67" fill="none" xmlns="http://www.w3.org/2000/svg">
<g clip-path="url(#clip0_469_15)">
<path fill-rule="evenodd" clip-rule="evenodd" d="M47.2037 9.03647C44.9763 21.3211 41.5748 33.7828 40.9089 45.832C34.3213 48.1427 27.6563 49.9405 20.9879 51.7156C19.1236 50.3297 18.0142 48.5386 16.4768 47.2725C15.5794 46.5394 14.183 46.2079 13.467 45.325C12.4728 44.1052 12.5339 40.2199 12.2981 38.6176C11.9251 36.1442 11.6561 34.0515 11.308 32.0523C23.1318 23.4555 35.5535 18.7845 47.2037 9.03647ZM41.3214 17.7631C40.8897 18.65 40.4398 19.0676 41.0245 20.0461C41.1425 20.1332 41.2672 20.2251 41.3852 20.3122C42.7912 19.7796 42.8577 17.4381 41.3214 17.7631ZM41.9043 23.7545C42.5084 23.2379 42.3194 22.8351 42.0295 22.4591C41.3236 22.4548 40.8455 23.2264 41.9043 23.7545ZM35.1331 22.3742C34.061 25.5843 29.7349 26.2717 27.9331 28.7408C27.4654 29.3884 27.4819 30.4642 27.0094 31.1183C25.9287 32.6102 23.7353 33.1392 22.5609 34.5111C20.703 36.6856 20.5493 39.3375 20.1105 41.6069C19.8332 43.0535 18.4259 45.5097 20.2382 46.7052C22.411 43.9528 21.5226 39.1441 24.2289 36.0257C25.4051 34.6651 27.0539 34.1192 28.5468 32.8099C28.7845 28.1636 36.5524 27.5342 35.6775 22.7759C35.4938 22.6404 35.3167 22.5097 35.1331 22.3742ZM36.7079 34.9423C35.6233 33.6254 37.4696 29.1328 34.7043 30.121C34.3866 31.6086 34.8554 32.9776 34.5604 34.4618C30.5745 33.1919 25.8294 38.9085 30.4058 40.847C31.4095 39.3084 29.9704 38.3073 30.9569 37.0802C31.953 35.84 34.2136 36.6066 35.7835 36.1949C35.966 35.5496 36.1402 35.3135 36.7079 34.9423ZM34.3346 40.4236C34.533 41.6235 33.7837 42.9547 35.0373 44.0013C36.888 43.2093 36.3886 39.1637 34.3346 40.4236ZM16.9386 31.2032C16.4009 31.6573 16.8549 31.9619 16.3172 32.416C16.9343 32.9524 17.5105 33.2561 18.0678 33.4343C19.5099 32.5232 18.2408 31.374 16.9386 31.2032ZM15.6939 37.7908C15.4753 38.1968 15.7013 38.5357 15.6993 38.9091C17.033 39.9844 18.0794 39.1155 19.0886 38.0773C18.3938 37.4127 16.7443 37.4517 15.6939 37.7908Z" fill="#C3BBA6"/>
<path fill-rule="evenodd" clip-rule="evenodd" d="M41.3843 20.3116C41.2662 20.2244 41.1416 20.1325 41.0236 20.0454C40.4388 19.0669 40.8888 18.6493 41.3204 17.7624C42.8568 17.4374 42.7903 19.7789 41.3843 20.3116Z" fill="black"/>
<path fill-rule="evenodd" clip-rule="evenodd" d="M42.0293 22.4581C42.3209 22.8454 42.5081 23.2368 41.9041 23.7534C40.8452 23.2253 41.3234 22.4538 42.0293 22.4581Z" fill="black"/>
<path fill-rule="evenodd" clip-rule="evenodd" d="M35.6767 22.7747C36.5582 27.5378 28.7837 28.1624 28.546 32.8087C27.058 34.1114 25.4044 34.6639 24.2282 36.0245C21.5218 39.1429 22.4168 43.9565 20.2374 46.704C18.4251 45.5085 19.8324 43.0523 20.1097 41.6057C20.5436 39.3429 20.7023 36.6844 22.5601 34.5099C23.7346 33.1379 25.9345 32.6138 27.0086 31.1171C27.4812 30.463 27.4581 29.3823 27.9324 28.7396C29.7341 26.2705 34.0602 25.5831 35.1323 22.373C35.316 22.5085 35.4931 22.6392 35.6767 22.7747Z" fill="black"/>
<path fill-rule="evenodd" clip-rule="evenodd" d="M35.7791 36.2005C34.2092 36.6121 31.9487 35.8456 30.9525 37.0858C29.966 38.3128 31.4099 39.3074 30.4014 40.8526C25.8299 38.9074 30.5749 33.1909 34.556 34.4673C34.8558 32.9766 34.3822 31.6142 34.6999 30.1266C37.4652 29.1383 35.6238 33.6243 36.7035 34.9478C36.1407 35.3125 35.9664 35.5486 35.7791 36.2005Z" fill="black"/>
<path fill-rule="evenodd" clip-rule="evenodd" d="M35.0312 43.9955C33.7842 42.9537 34.5269 41.6177 34.3285 40.4178C36.3891 39.1628 36.8884 43.2083 35.0312 43.9955Z" fill="black"/>
<path fill-rule="evenodd" clip-rule="evenodd" d="M18.0794 33.4315C17.5221 33.2533 16.9411 32.9562 16.3288 32.4132C16.8665 31.9591 16.4126 31.6545 16.9503 31.2004C18.2411 31.373 19.5102 32.5222 18.0794 33.4315Z" fill="black"/>
<path fill-rule="evenodd" clip-rule="evenodd" d="M19.0991 38.0747C18.0785 39.1146 17.0436 39.9818 15.7099 38.9064C15.7118 38.5331 15.4859 38.1942 15.7044 37.7882C16.7435 37.4508 18.393 37.4119 19.0991 38.0747Z" fill="black"/>
<path d="M15.9607 55.1886L15.8804 55.2673L15.831 55.3683C15.5823 55.8761 15.6237 56.3494 15.7507 56.7434C15.8109 56.9299 15.8909 57.1015 15.9629 57.2467C15.9956 57.3129 16.0242 57.3687 16.0506 57.4205C16.0897 57.4971 16.1243 57.5649 16.1615 57.6439C16.2772 57.8904 16.3048 58.0264 16.2908 58.1331C16.2854 58.1737 16.2705 58.2346 16.2235 58.3166C15.2219 57.5562 14.3115 56.7113 13.3278 55.7986C13.2679 55.743 13.2077 55.6871 13.1472 55.631C12.0653 54.6278 10.8972 53.5576 9.46139 52.4901C9.63534 52.0685 9.66576 51.6676 9.64115 51.296C9.6274 51.0882 9.59545 50.8811 9.56868 50.7075C9.56374 50.6755 9.55899 50.6447 9.55455 50.6152C9.54284 50.5374 9.53273 50.4654 9.52482 50.3975C9.56004 50.385 9.59503 50.378 9.63069 50.374C9.75662 50.3599 9.92158 50.3809 10.1626 50.4448C10.2703 50.4733 10.3793 50.5063 10.5017 50.5434C10.5137 50.5471 10.5258 50.5507 10.5381 50.5544C10.6704 50.5945 10.8178 50.6386 10.9678 50.6758C11.2627 50.7487 11.6258 50.8105 12.0059 50.7465L12.6314 50.6412L12.5456 50.0128C12.5445 50.0043 12.5457 49.9642 12.5831 49.9135C12.6206 49.8627 12.6586 49.8497 12.667 49.8483L13.2276 49.7557L13.2145 49.1876C13.2056 48.805 13.0739 48.4719 12.9224 48.1976C12.7733 47.9277 12.582 47.6756 12.4218 47.4653C12.4173 47.4593 12.4128 47.4534 12.4083 47.4475C12.2488 47.2381 12.1178 47.0661 12.0156 46.8962C12.4475 46.818 13.0259 46.8946 13.7437 47.1742C14.7296 47.5584 15.8167 48.2678 16.7864 49.1262C17.757 49.9854 18.5675 50.9561 19.03 51.8315C19.5169 52.753 19.5105 53.3443 19.3014 53.6547L19.2997 53.6572C19.1534 53.8765 19.0086 53.9799 18.8607 54.0454C18.6899 54.1211 18.4919 54.1581 18.1887 54.205C18.1698 54.2079 18.1506 54.2108 18.1313 54.2138C17.5442 54.3038 16.7377 54.4274 15.9607 55.1886Z" fill="#877B7B" stroke="black" stroke-width="1.30871"/>
<path d="M11.4233 31.9644C13.4085 30.441 37.3167 16.985 47.1683 9.26269C46.1789 14.104 41.2959 36.0275 40.9075 45.8199L20.9659 51.5667L16.3616 47.5107L15.4434 46.8332L13.7054 45.5507L12.7137 43.8059L11.4233 31.9644Z" stroke="black" stroke-width="1.30871"/>
</g>
<defs>
<clipPath id="clip0_469_15">
<rect width="32" height="58.7101" fill="white" transform="translate(34.959) rotate(36.424)"/>
</clipPath>
</defs>
</svg>
