<svg width="2524" height="432" viewBox="0 0 2524 432" fill="none" xmlns="http://www.w3.org/2000/svg">
<path d="M142.874 7.42566C218.037 7.42566 272.918 62.9034 272.918 136.874C272.918 210.247 218.037 265.725 142.874 265.725H32.5149V425H0.898524V7.42566H142.874ZM142.874 235.898C200.141 235.898 241.302 194.141 241.302 136.874C241.302 79.0098 200.141 37.2524 142.874 37.2524H32.5149V235.898H142.874ZM614.682 425L514.464 253.795H382.629V425H351.013V7.42566H515.657C583.662 7.42566 639.139 62.9034 639.139 130.908C639.139 187.579 600.365 235.302 547.273 249.619L651.07 425H614.682ZM382.629 37.2524V223.968H515.657C566.362 223.968 607.523 182.21 607.523 130.908C607.523 79.0098 566.362 37.2524 515.657 37.2524H382.629ZM908.344 431.562C787.844 431.562 692.995 335.52 692.995 216.213C692.995 96.9059 787.844 0.863793 908.344 0.863793C1028.84 0.863793 1123.69 96.9059 1123.69 216.213C1123.69 335.52 1028.84 431.562 908.344 431.562ZM908.344 401.139C1011.54 401.139 1092.08 318.817 1092.08 216.213C1092.08 113.609 1011.54 31.2871 908.344 31.2871C805.144 31.2871 724.612 113.609 724.612 216.213C724.612 318.817 805.144 401.139 908.344 401.139ZM1278.41 431.562C1221.15 431.562 1174.02 407.7 1153.74 361.767L1180.58 345.661C1195.5 383.243 1231.29 401.139 1278.41 401.139C1339.26 401.139 1380.42 370.119 1380.42 310.465V7.42566H1412.64V310.465C1412.64 390.401 1352.39 431.562 1278.41 431.562ZM1541.33 395.173H1750.12V425H1509.71V7.42566H1747.13V37.2524H1541.33V199.51H1732.22V229.337H1541.33V395.173ZM2018.15 431.562C1891.09 431.562 1801.01 335.52 1801.01 216.213C1801.01 96.9059 1891.09 0.863793 2018.15 0.863793C2095.1 0.863793 2162.51 40.2351 2197.11 101.082L2169.07 117.188C2141.63 65.8861 2083.77 31.2871 2018.15 31.2871C1908.39 31.2871 1832.63 113.609 1832.63 216.213C1832.63 318.817 1908.39 401.139 2018.15 401.139C2084.37 401.139 2142.83 365.943 2170.27 313.448L2198.3 329.554C2164.3 390.998 2096.3 431.562 2018.15 431.562ZM2523.54 7.42566V37.2524H2392.3V425H2360.09V37.2524H2228.85V7.42566H2523.54Z" fill="black"/>
</svg>
