<svg width="80" height="82" viewBox="0 0 80 82" fill="none" xmlns="http://www.w3.org/2000/svg">
<g clip-path="url(#clip0_366_2)">
<path d="M9.11604 67.1905C8.05093 67.8118 6.69243 67.4333 6.10187 66.3461L6.10091 66.3443L1.46471 57.8632C0.897855 56.8225 1.25453 55.5164 2.27163 54.9128C2.27146 54.9128 2.27182 54.9127 2.27163 54.9128L20.7764 43.999C20.7763 43.999 20.7766 43.999 20.7764 43.999C23.1868 42.5791 23.1784 39.0675 20.7461 37.6672L2.31167 27.0745L2.31 27.0735C1.27801 26.4841 0.906287 25.1686 1.48048 24.1133C1.48033 24.1135 1.48062 24.113 1.48048 24.1133L6.10102 15.6556C6.69114 14.5752 8.05831 14.1955 9.11604 14.8095C9.11585 14.8094 9.11623 14.8097 9.11604 14.8095L27.4205 25.4659C27.4203 25.4657 27.4208 25.466 27.4205 25.4659C29.8564 26.8878 32.9093 25.1207 32.9093 22.3043V2.92401C32.9093 1.70896 33.8917 0.732178 35.0942 0.732178H44.8737C46.0816 0.732178 47.0584 1.71438 47.0584 2.92401V22.3285C47.0584 25.1436 50.1006 26.9123 52.5374 25.4993L71.0185 14.8188C72.0881 14.1985 73.4541 14.5869 74.0398 15.6885L78.5394 24.1296C79.0954 25.1777 78.7252 26.4765 77.7029 27.0674L59.3974 37.6678C56.9757 39.0679 56.9639 42.58 59.3778 43.9919C59.3776 43.9919 59.3779 43.992 59.3778 43.9919L77.6907 54.7369L77.692 54.7378C78.7148 55.3348 79.0765 56.6453 78.5047 57.6831L78.5037 57.685L73.8672 66.1588C73.2769 67.2394 71.9091 67.6194 70.8513 67.0049L52.5475 56.349C50.1113 54.9261 47.0584 56.6937 47.0584 59.5105V79.076C47.0584 80.2911 46.0762 81.2679 44.8737 81.2679H35.0942C33.8863 81.2679 32.9093 80.2857 32.9093 79.076V59.6957C32.9093 56.879 29.8566 55.1115 27.4205 56.5342L9.11604 67.1905Z" fill="#217695"/>
<path d="M1.46471 57.8632L6.10091 66.3443L6.10187 66.3461C6.69243 67.4333 8.05093 67.8118 9.11604 67.1905L27.4205 56.5342C29.8566 55.1115 32.9093 56.879 32.9093 59.6957V79.076C32.9093 80.2857 33.8863 81.2679 35.0942 81.2679H44.8737C46.0762 81.2679 47.0584 80.2911 47.0584 79.076V59.5105C47.0584 56.6937 50.1113 54.9261 52.5475 56.349L70.8513 67.0049C71.9091 67.6194 73.2769 67.2394 73.8672 66.1588L78.5037 57.685L78.5047 57.6831C79.0765 56.6453 78.7148 55.3348 77.692 54.7378L77.6907 54.7369L59.3778 43.9919M1.46471 57.8632C1.46459 57.8629 1.46482 57.8635 1.46471 57.8632ZM1.46471 57.8632C0.897855 56.8225 1.25453 55.5164 2.27163 54.9128M2.27163 54.9128C2.27182 54.9127 2.27146 54.9128 2.27163 54.9128ZM2.27163 54.9128L20.7764 43.999M20.7764 43.999C20.7766 43.999 20.7763 43.999 20.7764 43.999ZM20.7764 43.999C23.1868 42.5791 23.1784 39.0675 20.7461 37.6672L2.31167 27.0745L2.31 27.0735C1.27801 26.4841 0.906287 25.1686 1.48048 24.1133M1.48048 24.1133C1.48062 24.113 1.48033 24.1135 1.48048 24.1133ZM1.48048 24.1133L6.10102 15.6556C6.69114 14.5752 8.05831 14.1955 9.11604 14.8095M9.11604 14.8095C9.11623 14.8097 9.11585 14.8094 9.11604 14.8095ZM9.11604 14.8095L27.4205 25.4659M27.4205 25.4659C27.4208 25.466 27.4203 25.4657 27.4205 25.4659ZM27.4205 25.4659C29.8564 26.8878 32.9093 25.1207 32.9093 22.3043V2.92401C32.9093 1.70896 33.8917 0.732178 35.0942 0.732178H44.8737C46.0816 0.732178 47.0584 1.71438 47.0584 2.92401V22.3285C47.0584 25.1436 50.1006 26.9123 52.5374 25.4993L71.0185 14.8188C72.0881 14.1985 73.4541 14.5869 74.0398 15.6885L78.5394 24.1296C79.0954 25.1777 78.7252 26.4765 77.7029 27.0674L59.3974 37.6678C56.9758 39.0679 56.9639 42.58 59.3778 43.9919M59.3778 43.9919C59.3779 43.992 59.3776 43.9919 59.3778 43.9919Z" stroke="#CBDDE1" stroke-width="1.46429"/>
</g>
<defs>
<clipPath id="clip0_366_2">
<rect width="79.0714" height="82" fill="white" transform="translate(0.464844)"/>
</clipPath>
</defs>
</svg>
