<svg width="434" height="191" viewBox="0 0 434 191" fill="none" xmlns="http://www.w3.org/2000/svg">
<g clip-path="url(#clip0_299_73)">
<path d="M388.941 51.3571C390.015 55.3638 336.733 29.8973 326.145 34.5751C315.556 39.2532 335.99 76.4178 326.369 79.6086C316.749 82.8004 279.276 51.7356 268.881 55.4401C258.487 59.1456 265.965 107.451 258.511 108.528C251.057 109.605 225.43 61.5617 217.781 63.6113C210.132 65.6609 202.771 119.782 193.464 120.743C184.156 121.702 167.212 77.1612 160.837 78.8694C154.462 80.5774 136.945 135.887 134.82 136.456C132.696 137.025 105.167 93.7859 96.2437 96.177C87.3196 98.5682 81.7395 152.997 76.9949 150.588" stroke="#575357" stroke-width="10" stroke-linecap="round" stroke-linejoin="round"/>
</g>
<defs>
<clipPath id="clip0_299_73">
<rect width="427" height="83" fill="white" transform="translate(0 110.516) rotate(-15)"/>
</clipPath>
</defs>
</svg>
